<svg width="1838" height="238" viewBox="0 0 1838 238" fill="none" xmlns="http://www.w3.org/2000/svg">
<path d="M42.9452 68.2239L43.2225 146.521L109.235 184.727L173.333 146.544L172.778 69.7581L148.404 83.396L148.404 131.945L109.258 154.599L70.0308 131.898L70.0308 82.5571C111.832 58.3688 140.49 39.8069 182.291 15.6186L157.381 0.554733L42.6678 67.6808L42.9452 68.2239Z" fill="white"/>
<path fill-rule="evenodd" clip-rule="evenodd" d="M26.6954 52.62L68.1294 26.5207L54.0261 4.4873L0.491336 38.2088L0 104.423L0.491336 170.637L54.1176 204.416L109 237.74L163.882 204.416L217.509 170.637L218 104.423L217.509 38.2088L173.37 10.1252L155.508 30.2793L191.305 52.62L191.412 104.423L191.305 156.226L149.962 182.267L109 207.139L68.0381 182.267L26.6954 156.226L26.5883 104.423L26.6954 52.62Z" fill="white"/>
<path fill-rule="evenodd" clip-rule="evenodd" d="M172.897 146.52V67.9581L144.032 50.4122L117.314 65.1959C126.479 70.7338 136.053 76.4577 146.451 82.557L146.451 131.898L107.754 154.599L69.1373 131.945L69.1373 83.396L42.691 67.8166L42.691 146.544L107.777 184.727L172.897 146.52ZM74.052 38.8389L99.9239 23.6003L61.0989 0L35.708 15.896C49.6354 24.0654 62.0837 31.5614 74.052 38.8389Z" fill="white"/>
<g clip-path="url(#clip0_185_115)">
<path d="M1823.14 105.72V128.179H1758.72V160.619H1836.98V184.666H1731.27V48.5518H1836.98V72.5986H1758.72V105.72H1823.14Z" fill="white"/>
<path d="M1696.24 184.666H1596.2V48.5518H1623.65V160.619H1696.24V184.666Z" fill="white"/>
<path d="M1554.97 144.966C1554.97 170.601 1535.23 184.666 1503.24 184.666H1436.09V48.5518H1501.43C1533.64 48.5518 1550.88 62.1632 1550.88 85.5295C1550.88 98.0067 1544.53 107.988 1533.64 112.752V115.702C1546.8 120.012 1554.97 130.901 1554.97 144.966ZM1503.7 125.91H1463.54V160.619H1504.15C1517.08 160.619 1525.7 153.36 1525.7 143.151C1525.7 133.17 1516.86 125.91 1503.7 125.91ZM1521.85 89.1592C1521.85 78.7238 1514.59 72.5986 1500.97 72.5986H1463.54V105.72H1500.75C1514.36 105.72 1521.85 98.6873 1521.85 89.1592Z" fill="white"/>
<path d="M1261.38 184.666L1331.25 48.5518H1336.01L1406.11 184.666H1375.03L1366.19 166.064H1301.08L1292.46 184.666H1261.38ZM1355.07 142.698L1334.43 98.2335H1332.61L1311.97 142.698L1310.38 145.647H1356.66L1355.07 142.698Z" fill="white"/>
<path d="M1176.89 128.179V105.72H1244.94V119.104C1244.94 159.485 1222.71 187.615 1180.29 187.615C1135.6 187.615 1108.38 155.855 1108.38 116.609C1108.38 77.3626 1135.82 45.6025 1180.74 45.6025C1216.36 45.6025 1231.56 62.8437 1231.56 62.8437L1215.45 83.7146C1215.45 83.7146 1201.84 71.918 1180.29 71.918C1154.43 71.918 1136.73 90.7472 1136.73 116.609C1136.73 142.471 1154.2 161.527 1180.06 161.527C1202.07 161.527 1215.22 147.688 1215.91 129.994V128.179H1176.89Z" fill="white"/>
<path d="M1009.92 128.179V105.72H1077.97V119.104C1077.97 159.485 1055.74 187.615 1013.32 187.615C968.629 187.615 941.406 155.855 941.406 116.609C941.406 77.3626 968.856 45.6025 1013.77 45.6025C1049.39 45.6025 1064.59 62.8437 1064.59 62.8437L1048.48 83.7146C1048.48 83.7146 1034.87 71.918 1013.32 71.918C987.458 71.918 969.763 90.7472 969.763 116.609C969.763 142.471 987.231 161.527 1013.09 161.527C1035.1 161.527 1048.26 147.688 1048.94 129.994V128.179H1009.92Z" fill="white"/>
<path d="M842.702 187.615C805.044 187.615 781.678 161.754 781.678 126.591V48.5518H809.128V126.591C809.128 145.42 820.244 161.3 842.702 161.3C865.388 161.3 875.824 145.647 875.824 126.591V48.5518H903.273V126.591C903.273 161.754 880.814 187.615 842.702 187.615Z" fill="white"/>
<path d="M622.953 184.666V48.5518H684.431C718.914 48.5518 740.238 65.5661 740.238 95.2844C740.238 115.475 730.257 129.313 714.604 136.799V138.841L747.044 181.944V184.666H715.965L685.793 143.151H650.403V184.666H622.953ZM711.881 96.4187C711.881 80.7655 701.219 72.5986 683.524 72.5986H650.403V120.012H684.205C701.446 120.012 711.881 112.299 711.881 96.4187Z" fill="white"/>
<path d="M574.118 48.7786V184.666H567.539L476.342 101.636V184.666H448.893V48.5518H455.698L546.895 129.767V48.7786H574.118Z" fill="white"/>
<path d="M341.57 187.615C303.911 187.615 280.545 161.754 280.545 126.591V48.5518H307.995V126.591C307.995 145.42 319.111 161.3 341.57 161.3C364.255 161.3 374.691 145.647 374.691 126.591V48.5518H402.141V126.591C402.141 161.754 379.682 187.615 341.57 187.615Z" fill="white"/>
</g>
<defs>
<clipPath id="clip0_185_115">
<rect width="1557" height="147" fill="white" transform="translate(280.088 45.3701)"/>
</clipPath>
</defs>
</svg>
